<?xml version="1.0" standalone="no"?>
<!DOCTYPE svg PUBLIC "-//W3C//DTD SVG 20010904//EN"
 "http://www.w3.org/TR/2001/REC-SVG-20010904/DTD/svg10.dtd">
<svg version="1.0" xmlns="http://www.w3.org/2000/svg"
 width="520.000000pt" height="520.000000pt" viewBox="0 0 520.000000 520.000000"
 preserveAspectRatio="xMidYMid meet">

<g transform="translate(0.000000,520.000000) scale(0.100000,-0.100000)"
fill="#000000" stroke="none">
<path d="M2470 4706 c0 -26 -42 -76 -64 -76 -8 0 -17 -13 -21 -30 -4 -16 -11
-30 -16 -30 -5 0 -9 -9 -9 -20 0 -11 -7 -23 -15 -26 -8 -4 -15 -12 -15 -19 0
-6 -9 -22 -20 -35 -11 -13 -20 -29 -20 -37 0 -7 -4 -13 -10 -13 -5 0 -10 -7
-10 -15 0 -8 -7 -15 -15 -15 -8 0 -15 -7 -15 -15 0 -8 -4 -15 -10 -15 -15 0
-50 -33 -50 -48 0 -9 -7 -11 -20 -7 -36 11 -80 -4 -80 -28 0 -18 -2 -19 -10
-7 -9 13 -12 13 -21 -2 -5 -10 -15 -18 -20 -18 -6 0 -17 -6 -24 -12 -35 -32
-45 -38 -60 -38 -8 0 -15 -4 -15 -9 0 -5 -10 -13 -21 -16 -12 -4 -37 -24 -57
-44 -35 -35 -37 -36 -111 -35 -48 0 -76 5 -79 12 -2 7 -10 12 -17 12 -7 0 -15
7 -19 15 -3 8 -10 15 -16 15 -11 0 -31 14 -53 38 -56 59 -70 72 -83 72 -8 0
-14 5 -14 10 0 6 -7 10 -15 10 -11 0 -15 -11 -15 -40 0 -22 5 -40 10 -40 6 0
10 -11 10 -25 0 -14 6 -28 14 -31 8 -3 17 -20 20 -39 4 -18 13 -36 21 -39 8
-3 15 -15 15 -26 0 -11 4 -20 9 -20 5 0 12 -13 16 -30 4 -16 11 -30 16 -30 5
0 9 -7 9 -15 0 -8 4 -15 10 -15 5 0 12 -16 16 -35 3 -19 10 -35 15 -35 5 0 9
-21 9 -46 l0 -47 -47 6 c-26 3 -49 10 -51 16 -6 17 -59 13 -66 -5 -9 -24 -7
-34 8 -34 7 0 22 -11 32 -25 10 -13 31 -27 46 -30 15 -4 28 -11 28 -16 0 -5 7
-9 15 -9 20 0 19 -26 -1 -42 -8 -7 -23 -21 -32 -30 -9 -10 -21 -18 -27 -18 -6
0 -17 -9 -25 -20 -8 -10 -27 -22 -42 -25 -15 -4 -28 -11 -28 -16 0 -5 -6 -9
-13 -9 -8 0 -27 -11 -42 -24 l-28 -24 31 -31 c17 -17 33 -31 36 -31 12 0 46
35 46 47 0 7 4 13 9 13 5 0 13 10 17 22 6 19 28 47 73 92 42 41 66 66 101 104
22 23 45 42 50 42 6 0 22 11 34 25 22 23 34 26 125 32 56 3 101 10 101 15 0 4
47 8 104 8 83 0 105 -3 110 -15 3 -8 12 -15 20 -15 8 0 16 -6 19 -12 5 -17
235 -18 245 -1 4 6 20 15 35 18 15 4 27 11 27 16 0 5 9 9 20 9 11 0 20 5 20
10 0 6 7 10 15 10 9 0 18 6 21 14 3 8 16 17 30 20 13 4 24 11 24 16 0 6 7 10
15 10 8 0 15 5 15 10 0 6 38 10 95 10 57 0 95 -4 95 -10 0 -5 9 -10 20 -10 11
0 20 -4 20 -9 0 -4 23 -11 52 -14 28 -4 54 -11 57 -16 3 -5 34 -12 69 -16 34
-4 62 -11 62 -16 0 -5 27 -9 60 -9 33 0 60 4 60 10 0 6 18 10 40 10 22 0 40
-4 40 -10 0 -5 7 -10 15 -10 8 0 15 -4 15 -9 0 -5 14 -12 30 -16 17 -4 30 -11
30 -16 0 -5 7 -9 15 -9 8 0 25 -11 39 -25 14 -14 28 -25 32 -25 4 0 44 -38 89
-85 46 -47 86 -85 89 -85 3 0 6 6 6 14 0 8 14 28 30 44 17 17 30 34 30 37 0 4
18 25 40 46 22 22 40 44 40 50 0 6 33 44 73 85 118 120 127 132 127 158 0 28
-17 35 -26 11 -4 -8 -12 -15 -20 -15 -8 0 -14 -4 -14 -9 0 -5 -11 -12 -25 -15
-14 -4 -25 -10 -25 -15 0 -5 -13 -12 -30 -16 -16 -4 -30 -11 -30 -16 0 -5 -11
-9 -24 -9 -13 0 -26 -5 -28 -11 -2 -6 -26 -13 -53 -16 -28 -3 -53 -11 -57 -17
-5 -8 -8 -7 -8 2 0 7 -13 12 -30 12 -20 0 -30 5 -30 15 0 9 -10 15 -26 15 -19
0 -25 4 -20 15 4 10 -1 15 -14 15 -11 0 -20 7 -20 15 0 8 -5 15 -11 15 -16 0
-36 23 -43 50 -3 14 -3 19 0 13 12 -28 22 -10 29 52 3 36 10 65 15 65 5 0 11
14 15 30 4 17 11 30 15 30 5 0 12 23 16 50 4 28 10 50 15 50 5 0 9 11 9 24 0
13 6 27 13 29 6 3 2 6 -10 6 -13 1 -23 -5 -23 -12 0 -7 -8 -20 -17 -29 -10 -8
-27 -27 -38 -41 -27 -35 -35 -33 -35 8 0 19 5 35 10 35 6 0 10 30 10 70 0 39
-2 70 -5 70 -3 0 -34 -30 -70 -66 -44 -44 -65 -74 -65 -90 0 -13 -4 -24 -10
-24 -16 0 -11 -27 6 -34 9 -3 45 -6 80 -6 57 0 64 -2 64 -19 0 -16 -10 -21
-55 -26 -30 -4 -55 -11 -55 -15 0 -4 -25 -11 -55 -15 -30 -3 -55 -11 -55 -16
0 -5 -11 -9 -25 -9 -14 0 -25 -4 -25 -9 0 -6 -20 -13 -45 -17 -25 -3 -45 -10
-45 -14 0 -4 -18 -10 -40 -14 -22 -3 -40 -11 -40 -16 0 -6 -11 -10 -25 -10
-14 0 -25 -4 -25 -9 0 -6 -20 -13 -45 -17 -25 -3 -45 -10 -45 -15 0 -5 -18
-12 -40 -15 -22 -4 -40 -10 -40 -15 0 -5 -9 -9 -20 -9 -11 0 -20 -4 -20 -9 0
-5 -21 -12 -47 -16 -27 -4 -51 -11 -54 -16 -6 -11 -600 -22 -625 -12 -21 8
-17 33 6 33 18 0 20 7 20 60 0 45 4 62 15 66 8 4 15 12 15 20 0 8 7 14 15 14
8 0 15 5 15 10 0 6 -4 10 -10 10 -5 0 -10 7 -10 15 0 8 5 15 10 15 6 0 10 -7
10 -15 0 -18 27 -20 33 -2 2 8 32 12 100 12 l97 -1 -6 36 c-4 19 -11 37 -15
38 -12 5 -12 42 0 42 4 0 11 42 15 92 4 51 11 95 15 98 5 3 12 40 16 83 4 42
11 77 16 77 5 0 9 27 9 60 0 33 -4 60 -10 60 -5 0 -10 -11 -10 -24z"/>
<path d="M3530 3281 c0 -4 -30 -11 -67 -14 -37 -4 -69 -11 -73 -16 -3 -6 -25
-12 -48 -13 -25 -2 -42 -8 -42 -15 0 -7 -11 -13 -25 -13 -14 0 -25 -4 -25 -10
0 -5 -6 -10 -14 -10 -19 0 -66 -46 -66 -65 0 -9 -8 -19 -17 -22 -10 -4 -24
-13 -31 -20 -7 -7 -19 -13 -25 -13 -7 0 -21 -11 -31 -25 -10 -14 -23 -25 -29
-25 -5 0 -20 -11 -33 -25 -15 -16 -34 -25 -54 -25 -17 0 -30 -5 -30 -12 0 -9
-4 -8 -11 2 -8 11 -12 12 -16 3 -2 -7 -14 -13 -25 -13 -18 0 -19 -4 -13 -41 8
-44 31 -79 52 -79 7 0 13 -4 13 -10 0 -5 11 -10 25 -10 14 0 25 -4 25 -10 0
-5 14 -10 30 -10 17 0 30 5 30 10 0 6 15 10 34 10 21 0 36 6 40 15 3 8 12 15
21 15 8 0 15 4 15 10 0 5 11 12 25 16 14 3 25 10 25 15 0 5 5 9 11 9 6 0 24
14 41 30 16 17 36 30 43 30 8 0 17 9 20 20 3 11 12 21 18 21 40 5 173 -5 175
-12 2 -5 10 -9 18 -9 8 0 14 -4 14 -10 0 -5 6 -10 14 -10 16 0 76 -56 76 -70
0 -5 9 -12 20 -15 11 -3 20 -13 20 -20 0 -17 93 -115 109 -115 6 0 11 -4 11
-10 0 -5 7 -10 15 -10 8 0 15 -9 15 -20 0 -11 -7 -20 -15 -20 -8 0 -15 -4 -15
-10 0 -5 5 -10 10 -10 20 0 10 -20 -13 -25 -19 -5 -23 -13 -23 -42 0 -20 -5
-38 -12 -41 -7 -2 -12 -16 -12 -32 0 -16 -7 -36 -17 -45 -14 -14 -14 -18 -2
-26 11 -7 10 -9 -5 -9 -12 0 -16 -5 -12 -15 3 -8 -2 -21 -10 -30 -9 -8 -18
-34 -21 -58 -2 -23 -9 -43 -14 -45 -5 -2 -9 -12 -9 -23 0 -10 -4 -19 -9 -19
-5 0 -13 -9 -16 -20 -3 -11 -12 -20 -19 -20 -8 0 -11 -10 -8 -30 3 -22 0 -30
-11 -30 -9 0 -19 -10 -23 -22 -4 -13 -12 -26 -18 -30 -7 -5 -4 -8 7 -8 9 0 17
-4 17 -10 0 -5 -7 -10 -15 -10 -14 0 -19 -11 -16 -37 1 -7 -6 -13 -16 -14 -11
0 -13 -3 -5 -6 19 -7 14 -23 -7 -23 -25 0 -31 -57 -30 -249 1 -88 -3 -146 -9
-150 -6 -3 -14 -19 -17 -34 -4 -15 -11 -27 -15 -27 -5 0 -12 -14 -15 -32 -7
-29 -48 -78 -66 -78 -4 0 -10 -9 -14 -19 -3 -11 -19 -22 -35 -26 -17 -4 -30
-11 -30 -16 0 -5 -11 -11 -25 -15 -14 -3 -25 -10 -25 -15 0 -5 -11 -9 -24 -9
-13 0 -26 -5 -28 -10 -2 -6 -28 -13 -58 -17 -30 -3 -58 -11 -62 -17 -10 -16
-826 -15 -836 0 -4 6 -37 15 -74 18 -38 4 -68 12 -68 17 0 5 -7 9 -15 9 -8 0
-15 4 -15 10 0 5 -17 12 -37 16 -23 4 -50 19 -68 38 -16 18 -38 35 -47 39 -10
3 -18 11 -18 16 0 5 -9 13 -20 16 -11 4 -20 15 -20 26 0 11 -6 22 -14 25 -8 3
-17 17 -21 32 -4 15 -12 30 -18 34 -8 5 -13 49 -14 130 -1 74 -6 124 -13 126
-5 2 -10 16 -10 30 0 64 -12 102 -34 108 -12 3 -30 16 -40 30 -11 13 -23 24
-28 24 -12 0 -33 21 -41 40 -3 9 -6 10 -6 3 -2 -21 -21 -14 -21 7 0 11 -7 20
-15 20 -9 0 -12 6 -9 15 4 10 0 15 -12 16 -11 0 -14 3 -6 6 17 7 15 23 -3 23
-8 0 -15 5 -15 11 0 6 -7 17 -15 25 -8 9 -15 26 -15 40 0 13 -4 24 -10 24 -5
0 -10 15 -11 33 0 17 -3 26 -6 20 -7 -20 -23 -15 -23 6 0 11 -6 22 -12 25 -7
3 -3 3 10 0 16 -4 22 -1 22 10 0 9 -4 16 -9 16 -19 0 -41 32 -41 60 0 16 -6
31 -12 33 -10 4 -9 8 2 16 13 10 13 12 0 21 -8 5 -21 10 -27 10 -7 0 -13 5
-13 10 0 6 6 10 13 10 8 0 7 4 -3 11 -11 8 -12 12 -3 16 10 3 9 8 -3 20 -8 9
-13 21 -11 28 7 18 -11 43 -20 28 -5 -6 -9 16 -11 49 -2 51 -6 64 -28 83 -15
13 -23 28 -20 34 11 16 -3 51 -20 51 -8 0 -14 -4 -14 -10 0 -17 -18 -11 -22 7
-3 16 -4 16 -20 0 -9 -9 -26 -17 -37 -17 -12 0 -21 -4 -21 -9 0 -5 -22 -11
-50 -15 -27 -4 -50 -10 -50 -15 0 -4 -23 -11 -51 -14 -51 -6 -89 -33 -89 -63
0 -7 -9 -16 -20 -19 -11 -4 -20 -15 -20 -26 0 -11 -7 -22 -15 -25 -8 -3 -17
-15 -21 -26 -7 -23 -35 -58 -46 -58 -13 0 -9 20 7 36 14 15 10 43 -9 57 -8 5
-8 9 0 15 6 4 15 18 19 32 7 22 6 23 -8 8 -9 -8 -19 -27 -23 -42 -3 -14 -10
-26 -15 -26 -5 0 -9 -11 -9 -25 0 -26 -15 -34 -23 -12 -3 6 -3 -6 -1 -28 2
-22 1 -32 -2 -22 -13 43 -21 7 -27 -126 -6 -149 0 -287 14 -287 4 0 11 -20 15
-45 3 -25 10 -45 15 -45 5 0 9 -11 9 -25 0 -14 5 -25 10 -25 6 0 10 -6 10 -14
0 -8 6 -21 14 -28 7 -8 17 -25 21 -38 4 -13 14 -30 21 -38 8 -7 14 -31 14 -53
0 -57 17 -48 22 13 3 29 11 54 17 56 6 2 11 12 11 23 0 10 5 19 12 19 6 0 -1
10 -15 23 -15 12 -27 28 -27 35 0 7 -11 23 -24 35 -12 12 -26 40 -30 62 -5 22
-12 43 -17 46 -6 3 -13 31 -16 62 -3 32 -10 57 -14 57 -14 0 -11 28 4 33 10 4
10 6 0 6 -16 1 -18 81 -3 81 6 0 10 15 10 33 0 19 7 39 19 49 10 8 21 22 24
29 4 12 7 11 16 -1 6 -8 12 -18 13 -21 2 -4 14 -9 28 -13 14 -3 19 -3 13 0
-20 9 -15 24 7 24 11 0 20 -7 20 -15 0 -10 10 -15 30 -15 32 0 41 -16 13 -23
-17 -4 -17 -5 0 -6 9 0 17 -5 17 -11 0 -5 7 -10 15 -10 9 0 15 -10 16 -27 1
-17 3 -21 6 -10 5 21 23 23 23 2 0 -8 5 -15 10 -15 6 0 10 5 10 10 0 6 7 10
15 10 8 0 15 -4 15 -10 0 -5 -5 -10 -11 -10 -6 0 -3 -7 5 -16 10 -10 14 -24
10 -40 -5 -18 -2 -24 10 -24 12 0 16 -10 16 -40 0 -27 6 -42 17 -49 16 -9 16
-12 3 -21 -13 -9 -13 -12 2 -21 13 -7 17 -20 14 -49 -2 -29 0 -40 10 -40 8 0
14 -11 14 -25 0 -14 5 -25 10 -25 19 0 10 -25 -16 -45 -25 -18 -25 -22 -22
-112 2 -75 0 -96 -12 -103 -10 -7 -11 -10 -2 -10 6 0 12 -7 12 -15 0 -11 11
-15 41 -15 36 0 48 -6 85 -44 24 -24 44 -52 44 -63 0 -30 45 -134 54 -126 5 5
6 -1 4 -12 -4 -17 23 -78 41 -95 4 -3 15 -22 26 -44 11 -21 35 -55 53 -75 19
-20 49 -59 67 -86 40 -64 158 -181 250 -251 41 -31 111 -70 168 -94 90 -37
104 -40 191 -40 60 0 96 -4 98 -11 3 -8 109 -11 353 -12 326 -1 354 1 410 20
33 11 89 28 125 38 36 11 74 25 85 32 11 7 39 19 62 27 24 8 70 34 104 58 34
24 78 54 98 67 20 13 40 30 44 37 4 8 13 14 19 14 6 0 21 11 34 25 13 14 28
25 35 25 9 0 59 35 81 58 6 6 50 59 98 118 5 7 12 28 15 48 4 20 11 36 15 36
5 0 11 14 15 30 4 16 11 30 16 30 5 0 9 6 9 14 0 8 6 21 14 28 8 8 19 41 26
73 7 33 17 69 22 81 15 31 60 62 113 76 44 12 50 11 96 -15 35 -19 63 -27 99
-27 73 0 61 15 -12 16 -37 1 -64 6 -66 13 -2 6 -17 24 -33 40 -23 23 -29 39
-29 70 0 23 5 41 10 41 22 0 9 40 -15 46 -14 3 -25 12 -25 20 0 8 -4 14 -10
14 -6 0 -10 32 -10 75 0 43 4 75 10 75 6 0 10 7 10 15 0 8 5 15 10 15 6 0 10
11 10 25 0 13 8 29 18 34 14 9 15 12 3 20 -11 7 -9 14 12 33 14 13 29 36 32
51 6 22 11 26 31 21 18 -5 24 -2 24 10 0 11 -9 16 -27 17 -16 0 -22 3 -14 6
21 9 71 59 71 72 0 6 5 11 10 11 6 0 10 12 10 26 0 14 4 23 10 19 21 -13 50 6
51 33 0 15 3 21 6 15 6 -15 43 -17 43 -3 0 6 7 10 15 10 8 0 15 4 15 9 0 5 9
11 20 14 13 3 20 0 20 -9 0 -17 17 -18 23 -1 3 6 6 1 6 -12 1 -13 10 -32 22
-42 18 -16 20 -29 20 -130 0 -71 -4 -115 -10 -117 -6 -2 -11 -10 -11 -18 0 -8
-4 -14 -10 -14 -5 0 -13 -18 -16 -40 -4 -22 -10 -40 -14 -40 -4 0 -11 -11 -14
-25 -4 -14 -11 -25 -16 -25 -6 0 -10 -7 -10 -15 0 -8 -9 -23 -20 -33 -15 -14
-19 -26 -14 -50 4 -18 10 -32 15 -32 5 0 9 -6 9 -14 0 -8 5 -18 11 -22 13 -8
67 51 75 84 4 12 10 22 15 22 5 0 9 6 9 14 0 8 7 21 15 30 26 26 37 158 31
356 -6 151 -11 196 -28 245 -12 33 -26 66 -31 73 -15 19 -27 14 -27 -13 0 -16
-6 -25 -15 -25 -8 0 -15 5 -15 10 0 6 -7 10 -15 10 -8 0 -15 5 -15 10 0 6 -6
10 -13 10 -7 0 -20 8 -29 18 -26 27 -46 42 -58 42 -5 0 -10 5 -10 10 0 6 -7
10 -15 10 -8 0 -15 6 -15 14 0 16 -30 26 -82 26 -21 0 -38 5 -38 10 0 6 -18
10 -40 10 -22 0 -40 5 -40 10 0 6 -18 10 -41 10 -32 0 -42 4 -46 20 -3 11 -9
20 -13 20 -5 0 -11 10 -13 23 l-4 22 -2 -22 c-1 -22 -21 -34 -21 -13 0 6 -4
10 -10 10 -5 0 -10 -6 -10 -13 0 -7 -9 -13 -20 -13 -11 0 -20 6 -20 13 0 7 -4
13 -9 13 -5 0 -11 18 -15 40 -3 22 -10 40 -15 40 -5 0 -12 14 -16 30 -4 17
-11 30 -16 30 -5 0 -9 9 -9 20 0 11 -4 20 -9 20 -5 0 -12 12 -16 27 -3 15 -17
37 -31 50 -13 12 -24 27 -24 32 0 6 -22 33 -50 61 -41 41 -56 50 -85 50 -19 0
-35 -4 -35 -9z m54 -1176 c-7 -16 -24 -21 -24 -6 0 8 7 13 27 20 1 1 0 -6 -3
-14z"/>
<path d="M1621 3253 c-1 -7 -8 -13 -16 -13 -8 0 -15 -7 -15 -15 0 -8 -7 -15
-15 -15 -8 0 -33 -19 -55 -42 -22 -24 -51 -55 -66 -70 -14 -16 -29 -28 -34
-28 -5 0 -12 -10 -16 -22 -3 -12 -13 -28 -20 -36 -8 -7 -14 -20 -14 -28 0 -8
-4 -14 -10 -14 -5 0 -12 -11 -16 -25 -3 -14 -10 -25 -14 -25 -13 0 -23 -123
-15 -189 l7 -62 36 7 c33 6 102 63 102 85 0 12 57 69 70 69 5 0 10 5 10 11 0
7 14 25 30 41 17 15 30 32 30 38 0 5 14 23 30 40 25 25 42 33 85 37 30 3 55
10 55 14 0 5 7 9 15 9 8 0 15 -4 15 -9 0 -5 23 -12 50 -16 28 -4 50 -11 50
-15 0 -14 110 -120 125 -120 7 0 15 -6 18 -12 2 -9 29 -13 84 -13 l80 0 43 44
c36 37 44 51 48 92 l5 49 -32 0 c-21 0 -31 -5 -31 -15 0 -8 -7 -15 -15 -15 -8
0 -15 -4 -15 -10 0 -19 -19 -10 -26 13 -8 27 -22 37 -51 37 -16 0 -23 6 -23
20 0 11 -6 20 -13 20 -7 0 -20 9 -30 20 -9 11 -23 20 -31 20 -8 0 -18 9 -21
20 -3 11 -14 20 -24 20 -9 0 -28 13 -41 30 -14 16 -35 29 -46 30 -12 0 -24 7
-28 15 -3 8 -17 15 -31 15 -14 0 -25 5 -25 10 0 14 -27 12 -34 -2 -5 -10 -7
-10 -12 0 -3 6 -12 12 -19 12 -7 0 -16 -6 -18 -12 -4 -10 -6 -10 -6 0 -1 14
-71 17 -71 2 0 -14 -27 -12 -33 3 -4 10 -6 10 -6 0z"/>
<path d="M880 2840 c-9 -6 -10 -10 -3 -10 6 0 15 5 18 10 8 12 4 12 -15 0z"/>
<path d="M1940 2820 c0 -5 -7 -10 -15 -10 -8 0 -15 -4 -15 -10 0 -5 -9 -10
-19 -10 -11 0 -26 -6 -33 -14 -8 -7 -24 -16 -35 -20 -12 -4 -25 -15 -28 -26
-3 -10 -12 -21 -20 -24 -8 -3 -15 -12 -15 -21 0 -8 -4 -15 -10 -15 -5 0 -12
-11 -16 -25 -3 -14 -10 -25 -15 -25 -5 0 -9 -18 -9 -40 0 -22 -4 -40 -10 -40
-5 0 -10 -22 -10 -50 0 -33 4 -50 13 -50 8 0 7 -4 -3 -11 -11 -8 -12 -12 -2
-16 6 -2 12 -16 12 -29 0 -13 5 -24 10 -24 6 0 10 -8 10 -18 0 -22 40 -72 57
-72 6 0 13 -6 16 -12 5 -17 149 -16 155 0 2 7 15 12 28 12 14 0 27 7 30 15 4
8 12 15 20 15 8 0 14 7 14 15 0 8 5 15 11 15 12 0 69 54 69 66 0 4 12 18 27
32 26 24 27 27 27 146 1 104 -2 125 -16 140 -10 10 -18 22 -18 27 0 15 -23 35
-48 43 -12 4 -22 12 -22 17 0 5 -7 9 -15 9 -8 0 -15 5 -15 10 0 6 -25 10 -55
10 -30 0 -55 -4 -55 -10z m122 -75 c33 -37 38 -46 38 -75 0 -49 -34 -75 -100
-75 -87 0 -112 33 -94 123 7 35 17 39 91 41 34 1 56 -4 65 -14z"/>
<path d="M3170 2820 c0 -5 -13 -10 -30 -10 -16 0 -30 -4 -30 -10 0 -5 -6 -10
-14 -10 -18 0 -76 -57 -76 -75 0 -7 -6 -15 -12 -17 -9 -3 -13 -33 -13 -103 0
-70 4 -100 13 -102 6 -3 12 -16 12 -29 0 -14 7 -27 15 -30 8 -3 17 -16 21 -27
7 -23 41 -57 56 -57 5 0 19 -11 32 -25 13 -14 28 -25 34 -25 6 0 12 -5 14 -11
2 -6 28 -14 58 -17 30 -2 58 -10 63 -16 5 -8 9 -8 15 0 4 6 24 14 45 17 37 6
67 26 67 46 0 6 7 11 15 11 8 0 17 14 21 35 3 19 10 35 15 35 5 0 9 14 9 30 0
17 5 30 10 30 6 0 10 11 10 25 0 14 -6 25 -12 25 -9 0 -8 4 2 10 12 8 13 11 1
19 -11 7 -11 10 0 15 11 5 11 7 2 12 -7 3 -13 16 -13 29 0 12 -7 25 -15 29 -8
3 -15 15 -15 26 0 11 -4 20 -10 20 -5 0 -10 6 -10 13 0 14 -35 47 -50 47 -5 0
-12 11 -16 25 -4 18 -13 25 -29 25 -13 0 -30 7 -39 15 -8 8 -28 15 -45 15 -17
0 -31 5 -31 10 0 6 -16 10 -35 10 -19 0 -35 -4 -35 -10z m98 -79 c2 -6 10 -18
18 -25 8 -8 14 -24 14 -35 0 -24 -29 -61 -47 -61 -7 0 -13 -4 -13 -10 0 -6
-27 -10 -60 -10 -68 0 -100 21 -100 65 0 23 42 76 71 88 22 10 113 1 117 -12z"/>
<path d="M820 2770 c0 -5 5 -10 10 -10 6 0 10 5 10 10 0 6 -4 10 -10 10 -5 0
-10 -4 -10 -10z"/>
<path d="M790 2720 c0 -5 5 -10 10 -10 6 0 10 5 10 10 0 6 -4 10 -10 10 -5 0
-10 -4 -10 -10z"/>
<path d="M841 1750 c-1 -24 10 -60 20 -60 5 0 9 7 9 15 0 8 -4 15 -9 15 -5 0
-12 10 -14 23 -2 12 -5 15 -6 7z"/>
<path d="M957 1713 c-10 -9 -8 -25 3 -43 9 -13 11 -13 20 0 6 10 10 11 10 3 0
-18 37 -16 44 2 3 9 0 15 -8 15 -8 0 -16 4 -18 9 -4 12 -43 23 -51 14z"/>
<path d="M4190 1709 c-11 -8 -12 -12 -2 -16 7 -2 19 -11 26 -19 11 -11 16 -11
19 -1 4 9 8 8 16 -3 9 -13 11 -13 11 2 0 9 6 18 13 21 19 7 3 17 -34 22 -19 2
-41 0 -49 -6z"/>
<path d="M1083 1665 c-15 -17 -16 -25 -3 -25 5 0 14 9 20 20 12 23 1 26 -17 5z"/>
<path d="M900 1650 c0 -5 5 -10 10 -10 6 0 10 5 10 10 0 6 -4 10 -10 10 -5 0
-10 -4 -10 -10z"/>
<path d="M492 441 c4 -13 18 -16 19 -4 0 4 -5 9 -11 12 -7 2 -11 -2 -8 -8z"/>
</g>
</svg>
